<svg width="119" height="17" fill="none" xmlns="http://www.w3.org/2000/svg"><path d="m9.6 13.602 5.33 3.217-1.414-6.063 4.709-4.08-6.201-.525L9.601.433 7.177 6.15l-6.2.526 4.708 4.08-1.414 6.062 5.33-3.217ZM59.622 13.602l5.33 3.217-1.414-6.063 4.709-4.08-6.201-.525L59.622.433 57.2 6.15l-6.201.526 4.709 4.08-1.415 6.062 5.33-3.217ZM33.749 13.602l5.33 3.217-1.415-6.063 4.71-4.08-6.202-.525L33.75.433 31.325 6.15l-6.2.526 4.709 4.08-1.415 6.062 5.33-3.217ZM83.77 13.602l5.33 3.217-1.414-6.063 4.71-4.08-6.202-.525L83.771.433 81.347 6.15l-6.2.526 4.708 4.08-1.414 6.062 5.33-3.217Z" fill="#ECC600"/><path opacity=".3" d="m109.644 13.602 5.33 3.217-1.415-6.063 4.709-4.08-6.201-.525-2.423-5.718-2.423 5.718-6.201.526 4.708 4.08-1.414 6.062 5.33-3.217Z" fill="#ECC600"/></svg>