<svg width="118" height="17" fill="none" xmlns="http://www.w3.org/2000/svg"><path d="m8.95 13.602 5.33 3.217-1.415-6.063 4.71-4.08-6.202-.525L8.95.433 6.526 6.15l-6.2.526 4.708 4.08-1.414 6.062 5.33-3.217ZM58.972 13.602l5.33 3.217-1.415-6.063 4.71-4.08-6.202-.525L58.972.433 56.548 6.15l-6.2.526 4.708 4.08-1.414 6.062 5.33-3.217ZM33.098 13.602l5.33 3.217-1.414-6.063 4.709-4.08-6.201-.525L33.098.433 30.675 6.15l-6.201.526 4.709 4.08-1.415 6.062 5.33-3.217ZM83.12 13.602l5.33 3.217-1.414-6.063 4.709-4.08-6.202-.525L83.12.433 80.697 6.15l-6.201.526 4.709 4.08-1.415 6.062 5.33-3.217Z" fill="#ECC600"/><path opacity=".3" d="m108.993 13.602 5.33 3.217-1.414-6.063 4.709-4.08-6.201-.525-2.424-5.718-2.423 5.718-6.201.526 4.709 4.08-1.415 6.062 5.33-3.217Z" fill="#ECC600"/></svg>