<svg width="84" height="22" fill="none" xmlns="http://www.w3.org/2000/svg"><path d="M22 11c0-6.072-4.928-11-11-11S0 4.928 0 11c0 5.324 3.784 9.757 8.8 10.78V14.3H6.6V11h2.2V8.25a3.854 3.854 0 0 1 3.85-3.85h2.75v3.3h-2.2c-.605 0-1.1.495-1.1 1.1V11h3.3v3.3h-3.3v7.645C17.655 21.395 22 16.709 22 11ZM72.6 0c6.082 0 11 4.919 11 11s-4.918 11-11 11c-6.081 0-11-4.919-11-11s4.919-11 11-11ZM70.59 16.799c4.871 0 7.543-4.039 7.543-7.543V8.91a5.26 5.26 0 0 0 1.32-1.383c-.472.204-.99.346-1.525.424A2.62 2.62 0 0 0 79.09 6.49a5.739 5.739 0 0 1-1.681.644 2.646 2.646 0 0 0-1.933-.833 2.663 2.663 0 0 0-2.656 2.656c0 .204.016.409.079.597A7.533 7.533 0 0 1 67.43 6.79c-.22.392-.361.848-.361 1.335 0 .912.471 1.729 1.178 2.2-.44 0-.848-.125-1.194-.33v.032c0 1.288.911 2.357 2.121 2.608-.22.063-.455.095-.691.095-.173 0-.33-.016-.503-.048a2.638 2.638 0 0 0 2.467 1.839 5.372 5.372 0 0 1-3.3 1.131c-.22 0-.424 0-.628-.031a7.44 7.44 0 0 0 4.054 1.194M41.8 7.333a3.667 3.667 0 1 0 0 7.334 3.667 3.667 0 0 0 0-7.334Z" fill="#fff"/><path fill-rule="evenodd" clip-rule="evenodd" d="M37.4 0a6.6 6.6 0 0 0-6.6 6.6v8.8a6.6 6.6 0 0 0 6.6 6.6h8.8a6.6 6.6 0 0 0 6.6-6.6V6.6A6.6 6.6 0 0 0 46.2 0h-8.8Zm-.733 11a5.133 5.133 0 1 1 10.266 0 5.133 5.133 0 0 1-10.266 0Zm10.266-5.133H48.4V4.4h-1.467v1.467Z" fill="#fff"/></svg>