<svg width="118" height="17" fill="none" xmlns="http://www.w3.org/2000/svg"><path d="m9.3 13.602 5.33 3.217-1.415-6.063 4.709-4.08-6.201-.525L9.299.433 6.876 6.15l-6.201.526 4.709 4.08-1.415 6.062 5.33-3.217ZM59.321 13.602l5.33 3.217-1.414-6.063 4.708-4.08-6.2-.525L59.32.433 56.898 6.15l-6.202.526 4.71 4.08-1.415 6.062 5.33-3.217ZM33.448 13.602l5.33 3.217-1.415-6.063 4.71-4.08-6.202-.525L33.448.433 31.024 6.15l-6.2.526 4.708 4.08-1.414 6.062 5.33-3.217ZM83.47 13.602l5.33 3.217-1.415-6.063 4.71-4.08-6.202-.525L83.47.433 81.046 6.15l-6.2.526 4.708 4.08-1.414 6.062 5.33-3.217Z" fill="#ECC600"/><path opacity=".3" d="m109.343 13.602 5.33 3.217-1.415-6.063 4.709-4.08-6.201-.525-2.423-5.718-2.424 5.718-6.201.526 4.709 4.08-1.414 6.062 5.33-3.217Z" fill="#ECC600"/></svg>