<svg width="15" height="15" fill="none" xmlns="http://www.w3.org/2000/svg"><path d="M7.405 1.813a5.73 5.73 0 0 0-4.978 8.568.478.478 0 0 1 .045.368l-.687 2.416 2.416-.688a.477.477 0 0 1 .368.045A5.73 5.73 0 1 0 7.406 1.813ZM.721 7.543a6.685 6.685 0 1 1 3.552 5.907l-2.64.75a.717.717 0 0 1-.884-.884l.751-2.64a6.657 6.657 0 0 1-.78-3.133ZM4.54 6.11a.477.477 0 0 1 .477-.477h4.775a.478.478 0 0 1 0 .955H5.018a.478.478 0 0 1-.477-.478Zm.477 2.388a.478.478 0 0 0 0 .955h2.865a.477.477 0 1 0 0-.955H5.018Z" fill="#fff"/></svg>