<svg width="19" height="19" fill="none" xmlns="http://www.w3.org/2000/svg"><path d="M9.5 0A9.5 9.5 0 0 1 19 9.5a9.5 9.5 0 0 1-13.858 8.444l-3.634 1.013a1.187 1.187 0 0 1-1.463-1.463l1.014-3.632A9.5 9.5 0 0 1 9.5 0Zm0 1.425A8.075 8.075 0 0 0 2.444 13.43l.143.257L1.53 17.47l3.788-1.056.257.143A8.074 8.074 0 1 0 9.5 1.425ZM6.413 10.45h4.273a.713.713 0 0 1 .097 1.418l-.097.007H6.413a.712.712 0 0 1-.097-1.418l.097-.007Zm0-3.325h6.18a.713.713 0 0 1 .095 1.418l-.096.007h-6.18a.712.712 0 0 1-.096-1.418l.097-.007Z" fill="#000"/></svg>