<svg width="26" height="26" fill="none" xmlns="http://www.w3.org/2000/svg"><path d="M12.813 0C5.737 0 0 5.735 0 12.812c0 7.077 5.738 12.813 12.813 12.813 7.076 0 12.813-5.737 12.813-12.813C25.626 5.736 19.888 0 12.813 0Zm0 2c5.962 0 10.813 4.85 10.813 10.812s-4.851 10.813-10.813 10.813C6.851 23.625 2 18.774 2 12.812 2.001 6.85 6.851 2 12.813 2Zm-4 6.812a2 2 0 1 0 0 4 2 2 0 0 0 0-4Zm8 0a2 2 0 1 0 0 4 2 2 0 0 0 0-4Zm-11.25 7.094a8.83 8.83 0 0 0 7.25 3.75 8.83 8.83 0 0 0 7.25-3.75 12.374 12.374 0 0 1-7.25 2.343c-2.707 0-5.208-.874-7.25-2.343Z" fill="#E63A05"/></svg>